<svg xmlns="http://www.w3.org/2000/svg" viewBox="0 0 100 100">
  <defs>
    <linearGradient id="bg" x1="0%" y1="0%" x2="100%" y2="100%">
      <stop offset="0%" style="stop-color:#059669"/>
      <stop offset="100%" style="stop-color:#0d9488"/>
    </linearGradient>
  </defs>
  <rect width="100" height="100" rx="22" fill="url(#bg)"/>
  <g transform="translate(50,50) scale(0.52)" fill="none" stroke="white" stroke-width="6" stroke-linecap="round" stroke-linejoin="round">
    <!-- Brain outline -->
    <path d="M-50,-20 C-50,-55 -15,-65 0,-50 C15,-65 50,-55 50,-20 C50,10 25,20 25,40 L15,40 C15,20 40,10 40,-20 C40,-40 15,-45 0,-35 C-15,-45 -40,-40 -40,-20 C-40,10 -15,20 -15,40 L-25,40 C-25,20 -50,10 -50,-20Z" fill="none" stroke-width="5"/>
  </g>
  <!-- Spark -->
  <circle cx="62" cy="38" r="8" fill="white" opacity="0.3"/>
  <circle cx="65" cy="35" r="4" fill="white" opacity="0.6"/>
</svg>
